# Blender v2.80 (sub 75) OBJ File: 'H house rubens alt.blend'
# www.blender.org
mtllib H house rubens alt.mtl
o Cube
v 5.323037 2.000000 -5.500000
v 5.323037 0.000000 -5.500000
v 5.323037 2.000000 -0.664296
v 5.323037 0.000000 -0.664296
v 5.073720 2.000000 -5.500000
v 5.073720 0.000000 -5.500000
v 5.073720 2.000000 -0.664296
v 5.073720 0.000000 -0.664296
vt 0.625000 0.500000
vt 0.875000 0.500000
vt 0.875000 0.750000
vt 0.625000 0.750000
vt 0.375000 0.750000
vt 0.625000 1.000000
vt 0.375000 1.000000
vt 0.375000 0.000000
vt 0.625000 0.000000
vt 0.625000 0.250000
vt 0.375000 0.250000
vt 0.125000 0.500000
vt 0.375000 0.500000
vt 0.125000 0.750000
vn 0.0000 1.0000 0.0000
vn 0.0000 0.0000 1.0000
vn -1.0000 0.0000 0.0000
vn 0.0000 -1.0000 0.0000
vn 1.0000 0.0000 0.0000
vn 0.0000 0.0000 -1.0000
usemtl Material
s off
f 1/1/1 5/2/1 7/3/1 3/4/1
f 4/5/2 3/4/2 7/6/2 8/7/2
f 8/8/3 7/9/3 5/10/3 6/11/3
f 6/12/4 2/13/4 4/5/4 8/14/4
f 2/13/5 1/1/5 3/4/5 4/5/5
f 6/11/6 5/10/6 1/1/6 2/13/6
o Cube.003
v -10.331362 2.000000 -8.205392
v -10.331362 0.000000 -8.205392
v 10.331362 2.000000 -8.205393
v 10.331362 0.000000 -8.205393
v -10.331362 2.000000 -7.956075
v -10.331362 0.000000 -7.956075
v 10.331362 2.000000 -7.956076
v 10.331362 0.000000 -7.956076
vt 0.625000 0.500000
vt 0.875000 0.500000
vt 0.875000 0.750000
vt 0.625000 0.750000
vt 0.375000 0.750000
vt 0.625000 1.000000
vt 0.375000 1.000000
vt 0.375000 0.000000
vt 0.625000 0.000000
vt 0.625000 0.250000
vt 0.375000 0.250000
vt 0.125000 0.500000
vt 0.375000 0.500000
vt 0.125000 0.750000
vn 0.0000 1.0000 0.0000
vn 1.0000 0.0000 0.0000
vn 0.0000 0.0000 1.0000
vn 0.0000 -1.0000 0.0000
vn -0.0000 0.0000 -1.0000
vn -1.0000 0.0000 0.0000
usemtl Material
s off
f 9/15/7 13/16/7 15/17/7 11/18/7
f 12/19/8 11/18/8 15/20/8 16/21/8
f 16/22/9 15/23/9 13/24/9 14/25/9
f 14/26/10 10/27/10 12/19/10 16/28/10
f 10/27/11 9/15/11 11/18/11 12/19/11
f 14/25/12 13/24/12 9/15/12 10/27/12
o Cube.001_Cube.004
v 5.330072 2.000000 -5.497833
v 5.330072 0.000000 -5.497833
v 10.330072 2.000000 -5.497833
v 5.330072 2.000000 -5.248516
v 5.330072 0.000000 -5.248516
v 10.330072 2.000000 -5.248516
v 10.330072 0.000000 -5.248516
v 10.330072 0.000000 -5.497833
vt 0.375000 0.250000
vt 0.625000 0.250000
vt 0.625000 0.500000
vt 0.375000 0.500000
vt 0.625000 0.750000
vt 0.375000 0.750000
vt 0.875000 0.500000
vt 0.875000 0.750000
vt 0.375000 0.000000
vt 0.625000 0.000000
vt 0.625000 1.000000
vt 0.375000 1.000000
vt 0.125000 0.500000
vt 0.125000 0.750000
vn -1.0000 0.0000 0.0000
vn 0.0000 0.0000 -1.0000
vn 0.0000 1.0000 0.0000
vn 0.0000 0.0000 1.0000
vn 1.0000 0.0000 0.0000
vn 0.0000 -1.0000 0.0000
usemtl Material
s off
f 21/29/13 20/30/13 17/31/13 18/32/13
f 18/32/14 17/31/14 19/33/14 24/34/14
f 17/31/15 20/35/15 22/36/15 19/33/15
f 23/37/16 22/38/16 20/30/16 21/29/16
f 24/34/17 19/33/17 22/39/17 23/40/17
f 21/41/18 18/32/18 24/34/18 23/42/18
o Cube.002_Cube.005
v 10.078211 2.000000 -5.511873
v 10.078211 0.000000 -5.511873
v 10.078210 2.000000 -7.945430
v 10.327528 2.000000 -5.511873
v 10.327528 0.000000 -5.511873
v 10.327527 2.000000 -7.945430
v 10.327527 0.000000 -7.945430
v 10.078210 0.000000 -7.945430
vt 0.375000 0.250000
vt 0.625000 0.250000
vt 0.625000 0.500000
vt 0.375000 0.500000
vt 0.625000 0.750000
vt 0.375000 0.750000
vt 0.875000 0.500000
vt 0.875000 0.750000
vt 0.375000 0.000000
vt 0.625000 0.000000
vt 0.625000 1.000000
vt 0.375000 1.000000
vt 0.125000 0.500000
vt 0.125000 0.750000
vn 0.0000 0.0000 1.0000
vn -1.0000 0.0000 0.0000
vn 0.0000 1.0000 0.0000
vn 1.0000 0.0000 -0.0000
vn 0.0000 0.0000 -1.0000
vn 0.0000 -1.0000 0.0000
usemtl Material
s off
f 29/43/19 28/44/19 25/45/19 26/46/19
f 26/46/20 25/45/20 27/47/20 32/48/20
f 25/45/21 28/49/21 30/50/21 27/47/21
f 31/51/22 30/52/22 28/44/22 29/43/22
f 32/48/23 27/47/23 30/53/23 31/54/23
f 29/55/24 26/46/24 32/48/24 31/56/24
o Cube.004_Cube.006
v -5.323037 2.000000 -5.500000
v -5.323037 0.000000 -5.500000
v -5.323037 2.000000 -0.664296
v -5.073720 2.000000 -5.500000
v -5.073720 0.000000 -5.500000
v -5.073720 2.000000 -0.664296
v -5.073720 0.000000 -0.664296
v -5.323037 0.000000 -0.664296
vt 0.375000 0.250000
vt 0.375000 0.500000
vt 0.625000 0.500000
vt 0.625000 0.250000
vt 0.375000 0.750000
vt 0.625000 0.750000
vt 0.875000 0.750000
vt 0.875000 0.500000
vt 0.375000 0.000000
vt 0.625000 0.000000
vt 0.375000 1.000000
vt 0.625000 1.000000
vt 0.125000 0.500000
vt 0.125000 0.750000
vn 0.0000 0.0000 -1.0000
vn -1.0000 0.0000 0.0000
vn 0.0000 1.0000 0.0000
vn 1.0000 0.0000 0.0000
vn 0.0000 0.0000 1.0000
vn 0.0000 -1.0000 0.0000
usemtl Material
s off
f 37/57/25 34/58/25 33/59/25 36/60/25
f 34/58/26 40/61/26 35/62/26 33/59/26
f 33/59/27 35/62/27 38/63/27 36/64/27
f 39/65/28 37/57/28 36/60/28 38/66/28
f 40/61/29 39/67/29 38/68/29 35/62/29
f 37/69/30 39/70/30 40/61/30 34/58/30
o Cube.005_Cube.007
v -5.330072 2.000000 -5.497833
v -5.330072 0.000000 -5.497833
v -10.330072 2.000000 -5.497833
v -5.330072 2.000000 -5.248516
v -5.330072 0.000000 -5.248516
v -10.330072 2.000000 -5.248516
v -10.330072 0.000000 -5.248516
v -10.330072 0.000000 -5.497833
vt 0.375000 0.250000
vt 0.375000 0.500000
vt 0.625000 0.500000
vt 0.625000 0.250000
vt 0.375000 0.750000
vt 0.625000 0.750000
vt 0.875000 0.750000
vt 0.875000 0.500000
vt 0.375000 0.000000
vt 0.625000 0.000000
vt 0.375000 1.000000
vt 0.625000 1.000000
vt 0.125000 0.500000
vt 0.125000 0.750000
vn 1.0000 0.0000 0.0000
vn 0.0000 0.0000 -1.0000
vn 0.0000 1.0000 0.0000
vn 0.0000 0.0000 1.0000
vn -1.0000 0.0000 0.0000
vn 0.0000 -1.0000 0.0000
usemtl Material
s off
f 45/71/31 42/72/31 41/73/31 44/74/31
f 42/72/32 48/75/32 43/76/32 41/73/32
f 41/73/33 43/76/33 46/77/33 44/78/33
f 47/79/34 45/71/34 44/74/34 46/80/34
f 48/75/35 47/81/35 46/82/35 43/76/35
f 45/83/36 47/84/36 48/75/36 42/72/36
o Cube.006_Cube.008
v -10.078211 2.000000 -5.511873
v -10.078211 0.000000 -5.511873
v -10.078210 2.000000 -7.945430
v -10.327528 2.000000 -5.511873
v -10.327528 0.000000 -5.511873
v -10.327527 2.000000 -7.945430
v -10.327527 0.000000 -7.945430
v -10.078210 0.000000 -7.945430
vt 0.375000 0.250000
vt 0.375000 0.500000
vt 0.625000 0.500000
vt 0.625000 0.250000
vt 0.375000 0.750000
vt 0.625000 0.750000
vt 0.875000 0.750000
vt 0.875000 0.500000
vt 0.375000 0.000000
vt 0.625000 0.000000
vt 0.375000 1.000000
vt 0.625000 1.000000
vt 0.125000 0.500000
vt 0.125000 0.750000
vn 0.0000 0.0000 1.0000
vn 1.0000 0.0000 0.0000
vn 0.0000 1.0000 0.0000
vn -1.0000 0.0000 -0.0000
vn 0.0000 0.0000 -1.0000
vn 0.0000 -1.0000 0.0000
usemtl Material
s off
f 53/85/37 50/86/37 49/87/37 52/88/37
f 50/86/38 56/89/38 51/90/38 49/87/38
f 49/87/39 51/90/39 54/91/39 52/92/39
f 55/93/40 53/85/40 52/88/40 54/94/40
f 56/89/41 55/95/41 54/96/41 51/90/41
f 53/97/42 55/98/42 56/89/42 50/86/42
o Cube.007_Cube.009
v 5.323037 2.000000 5.500000
v 5.323037 0.000000 5.500000
v 5.323037 2.000000 0.664295
v 5.073720 2.000000 5.500000
v 5.073720 0.000000 5.500000
v 5.073720 2.000000 0.664295
v 5.073720 0.000000 0.664295
v 5.323037 0.000000 0.664295
vt 0.375000 0.250000
vt 0.375000 0.500000
vt 0.625000 0.500000
vt 0.625000 0.250000
vt 0.375000 0.750000
vt 0.625000 0.750000
vt 0.875000 0.750000
vt 0.875000 0.500000
vt 0.375000 0.000000
vt 0.625000 0.000000
vt 0.375000 1.000000
vt 0.625000 1.000000
vt 0.125000 0.500000
vt 0.125000 0.750000
vn 0.0000 0.0000 1.0000
vn 1.0000 0.0000 0.0000
vn 0.0000 1.0000 0.0000
vn -1.0000 0.0000 0.0000
vn 0.0000 0.0000 -1.0000
vn 0.0000 -1.0000 0.0000
usemtl Material
s off
f 61/99/43 58/100/43 57/101/43 60/102/43
f 58/100/44 64/103/44 59/104/44 57/101/44
f 57/101/45 59/104/45 62/105/45 60/106/45
f 63/107/46 61/99/46 60/102/46 62/108/46
f 64/103/47 63/109/47 62/110/47 59/104/47
f 61/111/48 63/112/48 64/103/48 58/100/48
o Cube.008_Cube.010
v 5.330072 2.000000 5.497833
v 5.330072 0.000000 5.497833
v 10.330072 2.000000 5.497833
v 5.330072 2.000000 5.248516
v 5.330072 0.000000 5.248516
v 10.330072 2.000000 5.248516
v 10.330072 0.000000 5.248516
v 10.330072 0.000000 5.497833
vt 0.375000 0.250000
vt 0.375000 0.500000
vt 0.625000 0.500000
vt 0.625000 0.250000
vt 0.375000 0.750000
vt 0.625000 0.750000
vt 0.875000 0.750000
vt 0.875000 0.500000
vt 0.375000 0.000000
vt 0.625000 0.000000
vt 0.375000 1.000000
vt 0.625000 1.000000
vt 0.125000 0.500000
vt 0.125000 0.750000
vn -1.0000 0.0000 0.0000
vn 0.0000 0.0000 1.0000
vn 0.0000 1.0000 0.0000
vn 0.0000 0.0000 -1.0000
vn 1.0000 0.0000 0.0000
vn 0.0000 -1.0000 0.0000
usemtl Material
s off
f 69/113/49 66/114/49 65/115/49 68/116/49
f 66/114/50 72/117/50 67/118/50 65/115/50
f 65/115/51 67/118/51 70/119/51 68/120/51
f 71/121/52 69/113/52 68/116/52 70/122/52
f 72/117/53 71/123/53 70/124/53 67/118/53
f 69/125/54 71/126/54 72/117/54 66/114/54
o Cube.009_Cube.011
v 10.078211 2.000000 5.511873
v 10.078211 0.000000 5.511873
v 10.078210 2.000000 7.945430
v 10.327528 2.000000 5.511873
v 10.327528 0.000000 5.511873
v 10.327527 2.000000 7.945430
v 10.327527 0.000000 7.945430
v 10.078210 0.000000 7.945430
vt 0.375000 0.250000
vt 0.375000 0.500000
vt 0.625000 0.500000
vt 0.625000 0.250000
vt 0.375000 0.750000
vt 0.625000 0.750000
vt 0.875000 0.750000
vt 0.875000 0.500000
vt 0.375000 0.000000
vt 0.625000 0.000000
vt 0.375000 1.000000
vt 0.625000 1.000000
vt 0.125000 0.500000
vt 0.125000 0.750000
vn 0.0000 0.0000 -1.0000
vn -1.0000 0.0000 -0.0000
vn 0.0000 1.0000 0.0000
vn 1.0000 0.0000 0.0000
vn 0.0000 0.0000 1.0000
vn 0.0000 -1.0000 0.0000
usemtl Material
s off
f 77/127/55 74/128/55 73/129/55 76/130/55
f 74/128/56 80/131/56 75/132/56 73/129/56
f 73/129/57 75/132/57 78/133/57 76/134/57
f 79/135/58 77/127/58 76/130/58 78/136/58
f 80/131/59 79/137/59 78/138/59 75/132/59
f 77/139/60 79/140/60 80/131/60 74/128/60
o Cube.010_Cube.012
v -5.323037 2.000000 5.500000
v -5.323037 0.000000 5.500000
v -5.323037 2.000000 0.664295
v -5.073720 2.000000 5.500000
v -5.073720 0.000000 5.500000
v -5.073720 2.000000 0.664295
v -5.073720 0.000000 0.664295
v -5.323037 0.000000 0.664295
vt 0.375000 0.250000
vt 0.625000 0.250000
vt 0.625000 0.500000
vt 0.375000 0.500000
vt 0.625000 0.750000
vt 0.375000 0.750000
vt 0.875000 0.500000
vt 0.875000 0.750000
vt 0.375000 0.000000
vt 0.625000 0.000000
vt 0.625000 1.000000
vt 0.375000 1.000000
vt 0.125000 0.500000
vt 0.125000 0.750000
vn 0.0000 0.0000 1.0000
vn -1.0000 0.0000 0.0000
vn 0.0000 1.0000 0.0000
vn 1.0000 0.0000 0.0000
vn 0.0000 0.0000 -1.0000
vn 0.0000 -1.0000 0.0000
usemtl Material
s off
f 85/141/61 84/142/61 81/143/61 82/144/61
f 82/144/62 81/143/62 83/145/62 88/146/62
f 81/143/63 84/147/63 86/148/63 83/145/63
f 87/149/64 86/150/64 84/142/64 85/141/64
f 88/146/65 83/145/65 86/151/65 87/152/65
f 85/153/66 82/144/66 88/146/66 87/154/66
o Cube.011_Cube.013
v -5.330072 2.000000 5.497833
v -5.330072 0.000000 5.497833
v -10.330072 2.000000 5.497833
v -5.330072 2.000000 5.248516
v -5.330072 0.000000 5.248516
v -10.330072 2.000000 5.248516
v -10.330072 0.000000 5.248516
v -10.330072 0.000000 5.497833
vt 0.375000 0.250000
vt 0.625000 0.250000
vt 0.625000 0.500000
vt 0.375000 0.500000
vt 0.625000 0.750000
vt 0.375000 0.750000
vt 0.875000 0.500000
vt 0.875000 0.750000
vt 0.375000 0.000000
vt 0.625000 0.000000
vt 0.625000 1.000000
vt 0.375000 1.000000
vt 0.125000 0.500000
vt 0.125000 0.750000
vn 1.0000 0.0000 0.0000
vn 0.0000 0.0000 1.0000
vn 0.0000 1.0000 0.0000
vn 0.0000 0.0000 -1.0000
vn -1.0000 0.0000 0.0000
vn 0.0000 -1.0000 0.0000
usemtl Material
s off
f 93/155/67 92/156/67 89/157/67 90/158/67
f 90/158/68 89/157/68 91/159/68 96/160/68
f 89/157/69 92/161/69 94/162/69 91/159/69
f 95/163/70 94/164/70 92/156/70 93/155/70
f 96/160/71 91/159/71 94/165/71 95/166/71
f 93/167/72 90/158/72 96/160/72 95/168/72
o Cube.012_Cube.014
v -10.078211 2.000000 5.511873
v -10.078211 0.000000 5.511873
v -10.078210 2.000000 7.945430
v -10.327528 2.000000 5.511873
v -10.327528 0.000000 5.511873
v -10.327527 2.000000 7.945430
v -10.327527 0.000000 7.945430
v -10.078210 0.000000 7.945430
vt 0.375000 0.250000
vt 0.625000 0.250000
vt 0.625000 0.500000
vt 0.375000 0.500000
vt 0.625000 0.750000
vt 0.375000 0.750000
vt 0.875000 0.500000
vt 0.875000 0.750000
vt 0.375000 0.000000
vt 0.625000 0.000000
vt 0.625000 1.000000
vt 0.375000 1.000000
vt 0.125000 0.500000
vt 0.125000 0.750000
vn 0.0000 0.0000 -1.0000
vn 1.0000 0.0000 -0.0000
vn 0.0000 1.0000 0.0000
vn -1.0000 0.0000 0.0000
vn 0.0000 0.0000 1.0000
vn 0.0000 -1.0000 0.0000
usemtl Material
s off
f 101/169/73 100/170/73 97/171/73 98/172/73
f 98/172/74 97/171/74 99/173/74 104/174/74
f 97/171/75 100/175/75 102/176/75 99/173/75
f 103/177/76 102/178/76 100/170/76 101/169/76
f 104/174/77 99/173/77 102/179/77 103/180/77
f 101/181/78 98/172/78 104/174/78 103/182/78
o Cube.013_Cube.015
v -10.331362 2.000000 8.205391
v -10.331362 0.000000 8.205391
v 10.331362 2.000000 8.205390
v -10.331362 2.000000 7.956074
v -10.331362 0.000000 7.956074
v 10.331362 2.000000 7.956073
v 10.331362 0.000000 7.956073
v 10.331362 0.000000 8.205390
vt 0.375000 0.250000
vt 0.375000 0.500000
vt 0.625000 0.500000
vt 0.625000 0.250000
vt 0.375000 0.750000
vt 0.625000 0.750000
vt 0.875000 0.750000
vt 0.875000 0.500000
vt 0.375000 0.000000
vt 0.625000 0.000000
vt 0.375000 1.000000
vt 0.625000 1.000000
vt 0.125000 0.500000
vt 0.125000 0.750000
vn -1.0000 0.0000 0.0000
vn 0.0000 0.0000 1.0000
vn 0.0000 1.0000 0.0000
vn -0.0000 0.0000 -1.0000
vn 1.0000 0.0000 0.0000
vn 0.0000 -1.0000 0.0000
usemtl Material
s off
f 109/183/79 106/184/79 105/185/79 108/186/79
f 106/184/80 112/187/80 107/188/80 105/185/80
f 105/185/81 107/188/81 110/189/81 108/190/81
f 111/191/82 109/183/82 108/186/82 110/192/82
f 112/187/83 111/193/83 110/194/83 107/188/83
f 109/195/84 111/196/84 112/187/84 106/184/84
